<svg width="16" height="14" viewBox="0 0 16 14" fill="none" xmlns="http://www.w3.org/2000/svg">
<path d="M12.0527 10.5055H4.3158L2.84211 1H1" stroke="#161616" stroke-width="1.5" stroke-linecap="round" stroke-linejoin="round"/>
<path d="M3.05261 2.35791H15L12.7895 8.46856H3.99998" stroke="#161616" stroke-width="1.5" stroke-linecap="round" stroke-linejoin="round"/>
<path d="M6.15795 13.2213C6.97187 13.2213 7.63164 12.6133 7.63164 11.8634C7.63164 11.1134 6.97187 10.5054 6.15795 10.5054C5.34406 10.5054 4.68427 11.1134 4.68427 11.8634C4.68427 12.6133 5.34406 13.2213 6.15795 13.2213Z" stroke="#161616" stroke-width="1.5" stroke-linecap="round" stroke-linejoin="round"/>
<path d="M12.0527 13.2213C12.8666 13.2213 13.5264 12.6133 13.5264 11.8634C13.5264 11.1134 12.8666 10.5054 12.0527 10.5054C11.2387 10.5054 10.579 11.1134 10.579 11.8634C10.579 12.6133 11.2387 13.2213 12.0527 13.2213Z" stroke="#161616" stroke-width="1.5" stroke-linecap="round" stroke-linejoin="round"/>
</svg>
